<svg xmlns="http://www.w3.org/2000/svg" width="98" height="23" viewBox="0 0 98 23">
    <g fill="#FFF" fill-rule="evenodd">
        <path d="M3.888 22.152H0V11.908c0-1.588.554-2.809 1.662-3.663 1.108-.854 2.592-1.28 4.452-1.28 1.207 0 2.275.191 3.205.573.93.382 1.648.945 2.152 1.69.505.744.756 1.637.756 2.68v10.244H8.34v-8.904c0-.775-.188-1.365-.564-1.772-.376-.407-.93-.61-1.662-.61-.712 0-1.261.208-1.647.625-.386.417-.58 1.003-.58 1.757v8.904M24.852 15.437l3.932.432c-.257 1.34-.747 2.509-1.469 3.506a7.35 7.35 0 0 1-2.774 2.323c-1.128.55-2.37.827-3.725.827-1.494 0-2.808-.348-3.94-1.043a7.059 7.059 0 0 1-2.62-2.814c-.613-1.181-.919-2.492-.919-3.931 0-1.44.306-2.747.92-3.924a7.08 7.08 0 0 1 2.619-2.807c1.132-.694 2.446-1.042 3.94-1.042.95 0 1.827.122 2.634.365.806.244 1.49.564 2.055.96a7.156 7.156 0 0 1 1.477 1.385 7.01 7.01 0 0 1 1.001 1.683l-9.415 7.112-1.884-2.472 5.78-4.461c-.397-.447-1.035-.67-1.915-.67-.614 0-1.178.173-1.692.521a3.508 3.508 0 0 0-1.202 1.407 4.38 4.38 0 0 0-.43 1.943c0 .615.156 1.226.467 1.831a3.874 3.874 0 0 0 1.313 1.474c.564.378 1.217.566 1.959.566.644 0 1.241-.126 1.796-.38a3.61 3.61 0 0 0 2.092-2.791M33.809 7.337h2.82v3.782h-2.82v5.48c0 .545.12.957.363 1.235.243.278.567.417.972.417h1.484v3.9h-2.033c-1.692 0-2.894-.465-3.606-1.399-.712-.933-1.068-2.278-1.068-4.035V3.361h3.888v3.976M46.237 7.337h4.081v8.904c0 1.578.668 2.367 2.003 2.367 1.415 0 2.122-.789 2.122-2.367V7.337h4.08v9.871c0 1.152-.254 2.13-.763 2.934a4.69 4.69 0 0 1-2.055 1.794 6.61 6.61 0 0 1-2.776.588c-1.879 0-3.472-.834-4.778-2.501-1.058 1.667-2.567 2.501-4.525 2.501-.99 0-1.913-.195-2.768-.588a4.744 4.744 0 0 1-2.055-1.794c-.515-.804-.772-1.782-.772-2.934V7.337h4.081v8.904c0 1.578.707 2.367 2.122 2.367.702 0 1.212-.195 1.528-.588.317-.392.475-.985.475-1.78V7.338M67.085 6.964c1.494 0 2.807.348 3.94 1.043a7.06 7.06 0 0 1 2.619 2.814c.613 1.181.92 2.486.92 3.915 0 1.43-.307 2.738-.92 3.925a7.046 7.046 0 0 1-2.619 2.821c-1.133.695-2.446 1.042-3.94 1.042-1.494 0-2.805-.347-3.932-1.042a7.056 7.056 0 0 1-2.612-2.821c-.614-1.187-.92-2.495-.92-3.925 0-1.429.306-2.734.92-3.915a7.07 7.07 0 0 1 2.612-2.814c1.127-.695 2.438-1.043 3.932-1.043m0 3.901c-.722 0-1.35.152-1.884.455-.535.303-.95.752-1.247 1.347-.297.596-.445 1.286-.445 2.07 0 1.22.324 2.171.972 2.852.648.68 1.516 1.019 2.604 1.019.722 0 1.355-.151 1.9-.454.543-.302.961-.752 1.253-1.347.292-.596.438-1.286.438-2.07 0-.784-.146-1.474-.438-2.07a3.015 3.015 0 0 0-1.253-1.347c-.545-.303-1.178-.455-1.9-.455M79.977 22.152h-4.14V7.337h3.68v2.8h.059c.336-.954.835-1.69 1.499-2.212a3.534 3.534 0 0 1 2.24-.782h.817v4.154h-.935c-.99 0-1.773.32-2.352.961-.579.64-.868 1.521-.868 2.642v7.252M89.23 22.152h-3.903V.8h3.903v11.54h1.113c.327 0 .648-.137.964-.41.317-.272.584-.658.802-1.154l1.528-3.44h4.333l-1.543 3.44c-.327.715-.6 1.244-.816 1.586-.218.343-.45.608-.698.796-.247.19-.564.318-.95.387v.105c1.405.238 2.375.724 2.91 1.46.534.734.8 1.83.8 3.29v3.752h-3.887v-3.41c0-.943-.196-1.617-.587-2.024-.39-.408-.976-.611-1.758-.611H89.23v6.045"/>
    </g>
</svg>
