<?xml version="1.0" encoding="UTF-8"?>
<svg width="176px" height="50px" viewBox="0 0 176 50" version="1.1" xmlns="http://www.w3.org/2000/svg" xmlns:xlink="http://www.w3.org/1999/xlink">
    <g id="symbols" stroke="none" stroke-width="1" fill="none" fill-rule="evenodd">
        <g id="Header" transform="translate(-90.000000, -23.000000)" fill="#000000">
            <g id="scouts-logo-purple">
                <g transform="translate(90.000000, 23.000000)">
                    <path d="M0,39.2695946 L3.17676628,35.4567568 C5.37642912,37.2756757 7.68128736,38.4297297 10.4736858,38.4297297 C12.6726743,38.4297297 13.9997548,37.5554054 13.9997548,36.1216216 L13.9997548,36.0513514 C13.9997548,34.6864865 13.1615632,33.9871622 9.0764751,32.9378378 C4.15386973,31.6783784 0.977103448,30.3141892 0.977103448,25.4513514 L0.977103448,25.3817568 C0.977103448,20.9391892 4.53823755,18 9.53097318,18 C13.091433,18 16.1292874,19.1195946 18.6087969,21.1141892 L15.8150498,25.1722973 C13.6504521,23.6675676 11.5209195,22.7581081 9.46016858,22.7581081 C7.40144061,22.7581081 6.31846743,23.7027027 6.31846743,24.8918919 L6.31846743,24.9621622 C6.31846743,26.5716216 7.36570115,27.0959459 11.5910498,28.1797297 C16.548046,29.4743243 19.3404444,31.2587838 19.3404444,35.5263514 L19.3404444,35.5966216 C19.3404444,40.4587838 15.6403985,43.1871622 10.3684904,43.1871622 C6.66777011,43.1871622 2.932659,41.8932432 0,39.2695946" id="Fill-4"></path>
                    <path d="M21.8031632,33.2068919 L21.8031632,33.1366216 C21.8031632,27.7845946 25.887577,23.3764865 31.6133088,23.3764865 C35.1407264,23.3764865 37.3397149,24.5663514 39.085554,26.5251351 L35.8386575,30.0237838 C34.6518375,28.7643243 33.4650176,27.9595946 31.5795923,27.9595946 C28.9254314,27.9595946 27.0400061,30.3035135 27.0400061,33.0663514 L27.0400061,33.1366216 C27.0400061,36.0055405 28.8903663,38.3143243 31.7879602,38.3143243 C33.5695387,38.3143243 34.7914238,37.5447297 36.0827648,36.3204054 L39.1900751,39.4690541 C37.3747801,41.4622973 35.2803126,42.8967568 31.5438529,42.8967568 C25.9226421,42.8967568 21.8031632,38.5595946 21.8031632,33.2068919" id="Fill-5"></path>
                    <path d="M55.2415448,33.2068919 L55.2415448,33.1366216 C55.2415448,30.3731081 53.2515985,27.9595946 50.3189395,27.9595946 C47.2817594,27.9595946 45.46579,30.3035135 45.46579,33.0663514 L45.46579,33.1366216 C45.46579,35.9008108 47.4557364,38.3143243 50.3883954,38.3143243 C53.4262498,38.3143243 55.2415448,35.9704054 55.2415448,33.2068919 M40.2289471,33.2068919 L40.2289471,33.1366216 C40.2289471,27.7494595 44.5588169,23.3764865 50.3883954,23.3764865 C56.1842575,23.3764865 60.4777134,27.6798649 60.4777134,33.0663514 L60.4777134,33.1366216 C60.4777134,38.5237838 56.148518,42.8967568 50.3189395,42.8967568 C44.5230774,42.8967568 40.2289471,38.5947297 40.2289471,33.2068919" id="Fill-6"></path>
                    <path d="M62.5483096,35.8654054 L62.5483096,23.7268919 L67.8552828,23.7268919 L67.8552828,34.1863514 C67.8552828,36.7052703 69.0421027,37.9991892 71.0671142,37.9991892 C73.0914513,37.9991892 74.3834667,36.7052703 74.3834667,34.1863514 L74.3834667,23.7268919 L79.6904398,23.7268919 L79.6904398,42.4768919 L74.3834667,42.4768919 L74.3834667,39.8187838 C73.1615816,41.3924324 71.5910682,42.8262162 68.9025165,42.8262162 C64.8875586,42.8262162 62.5483096,40.1681081 62.5483096,35.8654054" id="Fill-7"></path>
                    <path d="M82.7736766,37.16 L82.7736766,18.9336486 L88.0799755,18.9336486 L88.0799755,23.7262162 L92.4806498,23.7262162 L92.4806498,28.2741892 L88.0799755,28.2741892 L88.0799755,36.285 C88.0799755,37.51 88.6046038,38.1045946 89.7914238,38.1045946 C90.7678529,38.1045946 91.6411096,37.8593243 92.4091709,37.4397297 L92.4091709,41.707973 C91.2924812,42.3721622 90.0011402,42.7917568 88.2195617,42.7917568 C84.9733395,42.7917568 82.7736766,41.4978378 82.7736766,37.16" id="Fill-8"></path>
                    <path d="M94.8168644,39.9936486 L97.0866575,36.495 C99.1109946,37.9645946 101.240527,38.7341892 102.985692,38.7341892 C104.522489,38.7341892 105.221094,38.1747297 105.221094,37.3348649 L105.221094,37.2652703 C105.221094,36.1098649 103.405125,35.7254054 101.345048,35.0956757 C98.7273011,34.3260811 95.759577,33.1024324 95.759577,29.4639189 L95.759577,29.3936486 C95.759577,25.5808108 98.8318222,23.447027 102.602673,23.447027 C104.976313,23.447027 107.559669,24.2510811 109.585355,25.6152703 L107.559669,29.2889189 C105.709983,28.2044595 103.858949,27.5395946 102.497477,27.5395946 C101.205462,27.5395946 100.542596,28.0997297 100.542596,28.8335135 L100.542596,28.9037838 C100.542596,29.9537838 102.3235,30.4436486 104.347163,31.142973 C106.966933,32.017973 110.004113,33.2767568 110.004113,36.7051351 L110.004113,36.7747297 C110.004113,40.9382432 106.896803,42.8267568 102.847454,42.8267568 C100.228359,42.8267568 97.2956996,41.9524324 94.8168644,39.9936486" id="Fill-9"></path>
                    <path d="M135.718657,22.555473 C137.232527,24.8797973 137.995194,27.5406081 138.233907,29.3453378 L140.997983,29.3453378 C140.766688,27.1399324 139.877922,23.909527 138.018795,21.0520946 C135.806995,17.6541216 132.926933,15.8561486 129.690826,15.8541216 L129.67127,15.8541216 C127.203225,15.8541216 124.892972,16.9656081 123.331899,18.9041216 C121.69193,20.9419595 121.070872,23.5777703 121.627868,26.1358784 L124.310351,25.5480405 C123.936098,23.8352027 124.369692,21.9966892 125.468849,20.6311486 C126.522152,19.3250676 128.01242,18.605473 129.671945,18.605473 L129.686106,18.605473 C132.549309,18.6075 134.547347,20.7541216 135.718657,22.555473" id="Fill-10"></path>
                    <path d="M155.671528,41.8274324 C154.597321,40.3375676 153.81375,38.5531081 153.467819,36.8368919 L150.678118,36.8368919 C150.892555,38.1767568 151.461015,40.3895946 152.958026,42.7233784 C152.020034,44.297027 150.335559,45.8504054 148.556003,46.7794595 C148.554654,46.7787838 148.55398,46.7787838 148.552631,46.7781081 C148.551957,46.7787838 148.550608,46.7787838 148.549934,46.7794595 C146.768356,45.8504054 145.085229,44.297027 144.147237,42.7233784 C145.644248,40.3895946 146.212034,38.1767568 146.42647,36.8368919 L143.636769,36.8368919 C143.291513,38.5531081 142.507942,40.3375676 141.433735,41.8274324 L140.966425,42.4767568 L141.299543,43.2058108 C142.465459,45.7537838 145.156708,48.3085135 147.996984,49.5632432 L148.548585,49.8078378 L148.552631,49.8071622 L148.556003,49.8078378 L149.107605,49.5632432 C151.94788,48.3085135 154.63913,45.7537838 155.805045,43.2058108 L156.138164,42.4767568 L155.671528,41.8274324 Z" id="Fill-11"></path>
                    <path d="M161.385864,22.555473 C159.871994,24.8797973 159.109327,27.5406081 158.871289,29.3453378 L156.107212,29.3453378 C156.338507,27.1399324 157.226599,23.909527 159.0864,21.0520946 C161.297526,17.6541216 164.177588,15.8561486 167.413695,15.8541216 L167.433925,15.8541216 C169.901297,15.8541216 172.210875,16.9656081 173.771948,18.9041216 C175.412592,20.9419595 176.033649,23.5777703 175.475979,26.1358784 L172.79417,25.5480405 C173.167749,23.8352027 172.734829,21.9966892 171.636346,20.6311486 C170.582369,19.3250676 169.092101,18.605473 167.432576,18.605473 L167.418415,18.605473 C164.555212,18.6075 162.557848,20.7541216 161.385864,22.555473" id="Fill-12"></path>
                    <path d="M143.754642,29.3452703 L146.519393,29.3452703 C146.174136,26.1540541 144.924604,23.3736486 143.817355,20.9108108 C142.711454,18.4533784 141.668267,16.1310811 141.683102,13.8175676 C141.706029,11.1567568 143.219899,8.44459459 145.733799,6.55878378 C146.174136,6.22635135 147.426366,5.26283784 148.552497,4.2277027 C149.677278,5.26283784 150.930182,6.22635135 151.37052,6.55878378 C153.88442,8.44459459 155.398964,11.1567568 155.421891,13.8175676 C155.436052,16.1310811 154.392864,18.4533784 153.287638,20.9108108 C152.179715,23.3736486 150.930857,26.1540541 150.5856,29.3452703 L153.349677,29.3452703 C153.691562,26.7101351 154.758351,24.3391892 155.790749,22.0405405 C157.022749,19.302027 158.185293,16.7148649 158.167761,13.7966216 C158.136067,10.2797297 156.211531,6.7527027 153.017232,4.35878378 C152.640956,4.07297297 150.682029,2.57702703 149.556573,1.36216216 L148.552497,0.277027027 L147.549094,1.36216216 C146.42229,2.57702703 144.463362,4.07297297 144.086412,4.35878378 C140.894136,6.7527027 138.968926,10.2797297 138.937232,13.7966216 C138.919025,16.7148649 140.082244,19.302027 141.312895,22.0405405 C142.346642,24.3391892 143.412757,26.7101351 143.754642,29.3452703" id="Fill-13"></path>
                    <polygon id="Fill-14" points="132.870559 34.4094595 164.234299 34.4094595 164.234299 31.7722973 132.870559 31.7722973"></polygon>
                </g>
            </g>
        </g>
    </g>
</svg>